<mxfile host="Electron" modified="2024-05-04T08:55:33.912Z" agent="Mozilla/5.0 (Windows NT 10.0; Win64; x64) AppleWebKit/537.36 (KHTML, like Gecko) draw.io/24.2.5 Chrome/120.0.6099.109 Electron/28.1.0 Safari/537.36" etag="OuYvT5mfz5-WLVuoJFY4" version="24.2.5" type="device">
  <diagram name="Page-1" id="74e2e168-ea6b-b213-b513-2b3c1d86103e">
    <mxGraphModel dx="1195" dy="588" grid="1" gridSize="10" guides="1" tooltips="1" connect="1" arrows="1" fold="1" page="1" pageScale="1" pageWidth="4681" pageHeight="3300" background="none" math="0" shadow="0">
      <root>
        <mxCell id="0" />
        <mxCell id="1" parent="0" />
        <mxCell id="77e6c97f196da883-8" value="sop拉高" style="rounded=1;whiteSpace=wrap;html=1;shadow=0;labelBackgroundColor=none;strokeWidth=1;fontFamily=Verdana;fontSize=8;align=center;" parent="1" vertex="1">
          <mxGeometry x="20" y="20" width="50" height="40" as="geometry" />
        </mxCell>
        <mxCell id="_o2dJ1vOlYaZSfBBGsUN-3" value="vld拉高" style="rounded=1;whiteSpace=wrap;html=1;shadow=0;labelBackgroundColor=none;strokeWidth=1;fontFamily=Verdana;fontSize=8;align=center;" vertex="1" parent="1">
          <mxGeometry x="80" y="70" width="50" height="40" as="geometry" />
        </mxCell>
        <mxCell id="_o2dJ1vOlYaZSfBBGsUN-4" value="控制16bits" style="rounded=1;whiteSpace=wrap;html=1;shadow=0;labelBackgroundColor=none;strokeWidth=1;fontFamily=Verdana;fontSize=8;align=center;" vertex="1" parent="1">
          <mxGeometry x="80" y="120" width="50" height="40" as="geometry" />
        </mxCell>
        <mxCell id="_o2dJ1vOlYaZSfBBGsUN-5" value="数据16bits" style="rounded=1;whiteSpace=wrap;html=1;shadow=0;labelBackgroundColor=none;strokeWidth=1;fontFamily=Verdana;fontSize=8;align=center;" vertex="1" parent="1">
          <mxGeometry x="140" y="120" width="50" height="40" as="geometry" />
        </mxCell>
        <mxCell id="_o2dJ1vOlYaZSfBBGsUN-6" value="vld拉高" style="rounded=1;whiteSpace=wrap;html=1;shadow=0;labelBackgroundColor=none;strokeWidth=1;fontFamily=Verdana;fontSize=8;align=center;" vertex="1" parent="1">
          <mxGeometry x="140" y="70" width="50" height="40" as="geometry" />
        </mxCell>
        <mxCell id="_o2dJ1vOlYaZSfBBGsUN-7" value="vld拉低" style="rounded=1;whiteSpace=wrap;html=1;shadow=0;labelBackgroundColor=none;strokeWidth=1;fontFamily=Verdana;fontSize=8;align=center;" vertex="1" parent="1">
          <mxGeometry x="200" y="70" width="50" height="40" as="geometry" />
        </mxCell>
        <mxCell id="_o2dJ1vOlYaZSfBBGsUN-8" value="vld拉高" style="rounded=1;whiteSpace=wrap;html=1;shadow=0;labelBackgroundColor=none;strokeWidth=1;fontFamily=Verdana;fontSize=8;align=center;" vertex="1" parent="1">
          <mxGeometry x="260" y="70" width="50" height="40" as="geometry" />
        </mxCell>
        <mxCell id="_o2dJ1vOlYaZSfBBGsUN-10" value="数据16bits" style="rounded=1;whiteSpace=wrap;html=1;shadow=0;labelBackgroundColor=none;strokeWidth=1;fontFamily=Verdana;fontSize=8;align=center;" vertex="1" parent="1">
          <mxGeometry x="260" y="120" width="50" height="40" as="geometry" />
        </mxCell>
        <mxCell id="_o2dJ1vOlYaZSfBBGsUN-11" value="数据16bits" style="rounded=1;whiteSpace=wrap;html=1;shadow=0;labelBackgroundColor=none;strokeWidth=1;fontFamily=Verdana;fontSize=8;align=center;" vertex="1" parent="1">
          <mxGeometry x="320" y="120" width="50" height="40" as="geometry" />
        </mxCell>
        <mxCell id="_o2dJ1vOlYaZSfBBGsUN-12" value="vld拉高" style="rounded=1;whiteSpace=wrap;html=1;shadow=0;labelBackgroundColor=none;strokeWidth=1;fontFamily=Verdana;fontSize=8;align=center;" vertex="1" parent="1">
          <mxGeometry x="320" y="70" width="50" height="40" as="geometry" />
        </mxCell>
        <mxCell id="_o2dJ1vOlYaZSfBBGsUN-13" value="" style="endArrow=none;dashed=1;html=1;dashPattern=1 3;strokeWidth=2;rounded=0;" edge="1" parent="1">
          <mxGeometry width="50" height="50" relative="1" as="geometry">
            <mxPoint x="380" y="110" as="sourcePoint" />
            <mxPoint x="430" y="110" as="targetPoint" />
          </mxGeometry>
        </mxCell>
        <mxCell id="_o2dJ1vOlYaZSfBBGsUN-14" value="数据16bits" style="rounded=1;whiteSpace=wrap;html=1;shadow=0;labelBackgroundColor=none;strokeWidth=1;fontFamily=Verdana;fontSize=8;align=center;" vertex="1" parent="1">
          <mxGeometry x="440" y="120" width="50" height="40" as="geometry" />
        </mxCell>
        <mxCell id="_o2dJ1vOlYaZSfBBGsUN-15" value="vld拉高" style="rounded=1;whiteSpace=wrap;html=1;shadow=0;labelBackgroundColor=none;strokeWidth=1;fontFamily=Verdana;fontSize=8;align=center;" vertex="1" parent="1">
          <mxGeometry x="440" y="70" width="50" height="40" as="geometry" />
        </mxCell>
        <mxCell id="_o2dJ1vOlYaZSfBBGsUN-16" value="vld拉低" style="rounded=1;whiteSpace=wrap;html=1;shadow=0;labelBackgroundColor=none;strokeWidth=1;fontFamily=Verdana;fontSize=8;align=center;" vertex="1" parent="1">
          <mxGeometry x="500" y="70" width="50" height="40" as="geometry" />
        </mxCell>
        <mxCell id="_o2dJ1vOlYaZSfBBGsUN-17" value="eop拉高" style="rounded=1;whiteSpace=wrap;html=1;shadow=0;labelBackgroundColor=none;strokeWidth=1;fontFamily=Verdana;fontSize=8;align=center;" vertex="1" parent="1">
          <mxGeometry x="500" y="170" width="50" height="40" as="geometry" />
        </mxCell>
        <mxCell id="_o2dJ1vOlYaZSfBBGsUN-18" value="sop拉低" style="rounded=1;whiteSpace=wrap;html=1;shadow=0;labelBackgroundColor=none;strokeWidth=1;fontFamily=Verdana;fontSize=8;align=center;" vertex="1" parent="1">
          <mxGeometry x="80" y="20" width="50" height="40" as="geometry" />
        </mxCell>
        <mxCell id="_o2dJ1vOlYaZSfBBGsUN-19" value="eop拉低" style="rounded=1;whiteSpace=wrap;html=1;shadow=0;labelBackgroundColor=none;strokeWidth=1;fontFamily=Verdana;fontSize=8;align=center;" vertex="1" parent="1">
          <mxGeometry x="560" y="170" width="50" height="40" as="geometry" />
        </mxCell>
        <mxCell id="_o2dJ1vOlYaZSfBBGsUN-20" value="把处理过的data&lt;br&gt;写入buf" style="rounded=1;whiteSpace=wrap;html=1;shadow=0;labelBackgroundColor=none;strokeWidth=1;fontFamily=Verdana;fontSize=8;align=center;" vertex="1" parent="1">
          <mxGeometry x="80" y="290" width="50" height="40" as="geometry" />
        </mxCell>
        <mxCell id="_o2dJ1vOlYaZSfBBGsUN-21" value="读控制&lt;br&gt;生成信号" style="rounded=1;whiteSpace=wrap;html=1;shadow=0;labelBackgroundColor=none;strokeWidth=1;fontFamily=Verdana;fontSize=8;align=center;" vertex="1" parent="1">
          <mxGeometry x="80" y="390" width="50" height="40" as="geometry" />
        </mxCell>
        <mxCell id="_o2dJ1vOlYaZSfBBGsUN-22" value="把data&lt;br&gt;写入buf" style="rounded=1;whiteSpace=wrap;html=1;shadow=0;labelBackgroundColor=none;strokeWidth=1;fontFamily=Verdana;fontSize=8;align=center;" vertex="1" parent="1">
          <mxGeometry x="140" y="290" width="50" height="40" as="geometry" />
        </mxCell>
        <mxCell id="_o2dJ1vOlYaZSfBBGsUN-23" value="把data&lt;br&gt;写入buf" style="rounded=1;whiteSpace=wrap;html=1;shadow=0;labelBackgroundColor=none;strokeWidth=1;fontFamily=Verdana;fontSize=8;align=center;" vertex="1" parent="1">
          <mxGeometry x="260" y="290" width="50" height="40" as="geometry" />
        </mxCell>
        <mxCell id="_o2dJ1vOlYaZSfBBGsUN-24" value="把data&lt;br&gt;写入buf" style="rounded=1;whiteSpace=wrap;html=1;shadow=0;labelBackgroundColor=none;strokeWidth=1;fontFamily=Verdana;fontSize=8;align=center;" vertex="1" parent="1">
          <mxGeometry x="320" y="290" width="50" height="40" as="geometry" />
        </mxCell>
        <mxCell id="_o2dJ1vOlYaZSfBBGsUN-25" value="写指针+=1" style="rounded=1;whiteSpace=wrap;html=1;shadow=0;labelBackgroundColor=none;strokeWidth=1;fontFamily=Verdana;fontSize=8;align=center;" vertex="1" parent="1">
          <mxGeometry x="80" y="340" width="50" height="40" as="geometry" />
        </mxCell>
        <mxCell id="_o2dJ1vOlYaZSfBBGsUN-26" value="写指针+=1" style="rounded=1;whiteSpace=wrap;html=1;shadow=0;labelBackgroundColor=none;strokeWidth=1;fontFamily=Verdana;fontSize=8;align=center;" vertex="1" parent="1">
          <mxGeometry x="140" y="340" width="50" height="40" as="geometry" />
        </mxCell>
        <mxCell id="_o2dJ1vOlYaZSfBBGsUN-27" value="写指针+=1" style="rounded=1;whiteSpace=wrap;html=1;shadow=0;labelBackgroundColor=none;strokeWidth=1;fontFamily=Verdana;fontSize=8;align=center;" vertex="1" parent="1">
          <mxGeometry x="260" y="340" width="50" height="40" as="geometry" />
        </mxCell>
        <mxCell id="_o2dJ1vOlYaZSfBBGsUN-28" value="写指针+=1" style="rounded=1;whiteSpace=wrap;html=1;shadow=0;labelBackgroundColor=none;strokeWidth=1;fontFamily=Verdana;fontSize=8;align=center;" vertex="1" parent="1">
          <mxGeometry x="320" y="340" width="50" height="40" as="geometry" />
        </mxCell>
        <mxCell id="_o2dJ1vOlYaZSfBBGsUN-29" value="写指针+=1" style="rounded=1;whiteSpace=wrap;html=1;shadow=0;labelBackgroundColor=none;strokeWidth=1;fontFamily=Verdana;fontSize=8;align=center;" vertex="1" parent="1">
          <mxGeometry x="440" y="340" width="50" height="40" as="geometry" />
        </mxCell>
        <mxCell id="_o2dJ1vOlYaZSfBBGsUN-30" value="终止指针&lt;br&gt;赋值" style="rounded=1;whiteSpace=wrap;html=1;shadow=0;labelBackgroundColor=none;strokeWidth=1;fontFamily=Verdana;fontSize=8;align=center;" vertex="1" parent="1">
          <mxGeometry x="500" y="240" width="50" height="40" as="geometry" />
        </mxCell>
        <mxCell id="_o2dJ1vOlYaZSfBBGsUN-32" value="延迟计数器&lt;br&gt;置零" style="rounded=1;whiteSpace=wrap;html=1;shadow=0;labelBackgroundColor=none;strokeWidth=1;fontFamily=Verdana;fontSize=8;align=center;" vertex="1" parent="1">
          <mxGeometry x="20" y="500" width="50" height="40" as="geometry" />
        </mxCell>
        <mxCell id="_o2dJ1vOlYaZSfBBGsUN-33" value="延迟计数器&lt;br&gt;+=1" style="rounded=1;whiteSpace=wrap;html=1;shadow=0;labelBackgroundColor=none;strokeWidth=1;fontFamily=Verdana;fontSize=8;align=center;" vertex="1" parent="1">
          <mxGeometry x="140" y="500" width="50" height="40" as="geometry" />
        </mxCell>
        <mxCell id="_o2dJ1vOlYaZSfBBGsUN-34" value="延迟计数器&lt;br&gt;+=1" style="rounded=1;whiteSpace=wrap;html=1;shadow=0;labelBackgroundColor=none;strokeWidth=1;fontFamily=Verdana;fontSize=8;align=center;" vertex="1" parent="1">
          <mxGeometry x="200" y="500" width="50" height="40" as="geometry" />
        </mxCell>
        <mxCell id="_o2dJ1vOlYaZSfBBGsUN-35" value="延迟计数器&lt;br&gt;+=1" style="rounded=1;whiteSpace=wrap;html=1;shadow=0;labelBackgroundColor=none;strokeWidth=1;fontFamily=Verdana;fontSize=8;align=center;" vertex="1" parent="1">
          <mxGeometry x="260" y="500" width="50" height="40" as="geometry" />
        </mxCell>
        <mxCell id="_o2dJ1vOlYaZSfBBGsUN-36" value="延迟计数器&lt;br&gt;+=1" style="rounded=1;whiteSpace=wrap;html=1;shadow=0;labelBackgroundColor=none;strokeWidth=1;fontFamily=Verdana;fontSize=8;align=center;" vertex="1" parent="1">
          <mxGeometry x="320" y="500" width="50" height="40" as="geometry" />
        </mxCell>
        <mxCell id="_o2dJ1vOlYaZSfBBGsUN-37" value="延迟计数器&lt;br&gt;+=1" style="rounded=1;whiteSpace=wrap;html=1;shadow=0;labelBackgroundColor=none;strokeWidth=1;fontFamily=Verdana;fontSize=8;align=center;" vertex="1" parent="1">
          <mxGeometry x="380" y="500" width="50" height="40" as="geometry" />
        </mxCell>
        <mxCell id="_o2dJ1vOlYaZSfBBGsUN-39" value="" style="endArrow=none;dashed=1;html=1;dashPattern=1 3;strokeWidth=2;rounded=0;" edge="1" parent="1">
          <mxGeometry width="50" height="50" relative="1" as="geometry">
            <mxPoint x="440" y="519.58" as="sourcePoint" />
            <mxPoint x="490" y="519.58" as="targetPoint" />
          </mxGeometry>
        </mxCell>
        <mxCell id="_o2dJ1vOlYaZSfBBGsUN-41" value="" style="endArrow=classic;html=1;rounded=0;entryX=0;entryY=0.5;entryDx=0;entryDy=0;exitX=0.5;exitY=1;exitDx=0;exitDy=0;" edge="1" parent="1" source="_o2dJ1vOlYaZSfBBGsUN-21" target="_o2dJ1vOlYaZSfBBGsUN-33">
          <mxGeometry relative="1" as="geometry">
            <mxPoint x="104.58" y="280" as="sourcePoint" />
            <mxPoint x="104.58" y="395.42" as="targetPoint" />
            <Array as="points">
              <mxPoint x="105" y="520" />
            </Array>
          </mxGeometry>
        </mxCell>
        <mxCell id="_o2dJ1vOlYaZSfBBGsUN-42" value="触发信号" style="edgeLabel;resizable=0;html=1;;align=center;verticalAlign=middle;" connectable="0" vertex="1" parent="_o2dJ1vOlYaZSfBBGsUN-41">
          <mxGeometry relative="1" as="geometry" />
        </mxCell>
        <mxCell id="_o2dJ1vOlYaZSfBBGsUN-43" value="延迟计数器&lt;br&gt;&amp;lt;=32" style="rounded=1;whiteSpace=wrap;html=1;shadow=0;labelBackgroundColor=none;strokeWidth=1;fontFamily=Verdana;fontSize=8;align=center;" vertex="1" parent="1">
          <mxGeometry x="500" y="500" width="50" height="40" as="geometry" />
        </mxCell>
        <mxCell id="_o2dJ1vOlYaZSfBBGsUN-45" value="搜索#0" style="rounded=1;whiteSpace=wrap;html=1;shadow=0;labelBackgroundColor=none;strokeWidth=1;fontFamily=Verdana;fontSize=8;align=center;" vertex="1" parent="1">
          <mxGeometry x="140" y="650" width="50" height="40" as="geometry" />
        </mxCell>
        <mxCell id="_o2dJ1vOlYaZSfBBGsUN-46" value="搜索#1" style="rounded=1;whiteSpace=wrap;html=1;shadow=0;labelBackgroundColor=none;strokeWidth=1;fontFamily=Verdana;fontSize=8;align=center;" vertex="1" parent="1">
          <mxGeometry x="200" y="650" width="50" height="40" as="geometry" />
        </mxCell>
        <mxCell id="_o2dJ1vOlYaZSfBBGsUN-47" value="搜索#31" style="rounded=1;whiteSpace=wrap;html=1;shadow=0;labelBackgroundColor=none;strokeWidth=1;fontFamily=Verdana;fontSize=8;align=center;" vertex="1" parent="1">
          <mxGeometry x="500" y="650" width="50" height="40" as="geometry" />
        </mxCell>
        <mxCell id="_o2dJ1vOlYaZSfBBGsUN-48" value="" style="endArrow=none;dashed=1;html=1;dashPattern=1 3;strokeWidth=2;rounded=0;" edge="1" parent="1">
          <mxGeometry width="50" height="50" relative="1" as="geometry">
            <mxPoint x="260" y="669.58" as="sourcePoint" />
            <mxPoint x="490" y="670" as="targetPoint" />
          </mxGeometry>
        </mxCell>
        <mxCell id="_o2dJ1vOlYaZSfBBGsUN-49" value="发送#0" style="rounded=1;whiteSpace=wrap;html=1;shadow=0;labelBackgroundColor=none;strokeWidth=1;fontFamily=Verdana;fontSize=8;align=center;" vertex="1" parent="1">
          <mxGeometry x="560" y="550" width="50" height="40" as="geometry" />
        </mxCell>
        <mxCell id="_o2dJ1vOlYaZSfBBGsUN-50" value="发送#1" style="rounded=1;whiteSpace=wrap;html=1;shadow=0;labelBackgroundColor=none;strokeWidth=1;fontFamily=Verdana;fontSize=8;align=center;" vertex="1" parent="1">
          <mxGeometry x="620" y="550" width="50" height="40" as="geometry" />
        </mxCell>
        <mxCell id="_o2dJ1vOlYaZSfBBGsUN-51" value="发送#n" style="rounded=1;whiteSpace=wrap;html=1;shadow=0;labelBackgroundColor=none;strokeWidth=1;fontFamily=Verdana;fontSize=8;align=center;" vertex="1" parent="1">
          <mxGeometry x="740" y="550" width="50" height="40" as="geometry" />
        </mxCell>
        <mxCell id="_o2dJ1vOlYaZSfBBGsUN-52" value="" style="endArrow=none;dashed=1;html=1;dashPattern=1 3;strokeWidth=2;rounded=0;" edge="1" parent="1">
          <mxGeometry width="50" height="50" relative="1" as="geometry">
            <mxPoint x="680" y="569.58" as="sourcePoint" />
            <mxPoint x="730" y="569.58" as="targetPoint" />
          </mxGeometry>
        </mxCell>
        <mxCell id="_o2dJ1vOlYaZSfBBGsUN-53" value="到终止指针&lt;br&gt;发送结束" style="rounded=1;whiteSpace=wrap;html=1;shadow=0;labelBackgroundColor=none;strokeWidth=1;fontFamily=Verdana;fontSize=8;align=center;" vertex="1" parent="1">
          <mxGeometry x="740" y="600" width="50" height="40" as="geometry" />
        </mxCell>
        <mxCell id="_o2dJ1vOlYaZSfBBGsUN-54" value="sop拉高" style="rounded=1;whiteSpace=wrap;html=1;shadow=0;labelBackgroundColor=none;strokeWidth=1;fontFamily=Verdana;fontSize=8;align=center;" vertex="1" parent="1">
          <mxGeometry x="620" y="20" width="50" height="40" as="geometry" />
        </mxCell>
        <mxCell id="_o2dJ1vOlYaZSfBBGsUN-55" value="sop拉高" style="rounded=1;whiteSpace=wrap;html=1;shadow=0;labelBackgroundColor=none;strokeWidth=1;fontFamily=Verdana;fontSize=8;align=center;" vertex="1" parent="1">
          <mxGeometry x="680" y="20" width="50" height="40" as="geometry" />
        </mxCell>
        <mxCell id="_o2dJ1vOlYaZSfBBGsUN-56" value="vld拉高" style="rounded=1;whiteSpace=wrap;html=1;shadow=0;labelBackgroundColor=none;strokeWidth=1;fontFamily=Verdana;fontSize=8;align=center;" vertex="1" parent="1">
          <mxGeometry x="680" y="70" width="50" height="40" as="geometry" />
        </mxCell>
        <mxCell id="_o2dJ1vOlYaZSfBBGsUN-57" value="控制16bits" style="rounded=1;whiteSpace=wrap;html=1;shadow=0;labelBackgroundColor=none;strokeWidth=1;fontFamily=Verdana;fontSize=8;align=center;" vertex="1" parent="1">
          <mxGeometry x="680" y="120" width="50" height="40" as="geometry" />
        </mxCell>
        <mxCell id="_o2dJ1vOlYaZSfBBGsUN-58" value="数据16bits" style="rounded=1;whiteSpace=wrap;html=1;shadow=0;labelBackgroundColor=none;strokeWidth=1;fontFamily=Verdana;fontSize=8;align=center;" vertex="1" parent="1">
          <mxGeometry x="740" y="120" width="50" height="40" as="geometry" />
        </mxCell>
        <mxCell id="_o2dJ1vOlYaZSfBBGsUN-59" value="vld拉高" style="rounded=1;whiteSpace=wrap;html=1;shadow=0;labelBackgroundColor=none;strokeWidth=1;fontFamily=Verdana;fontSize=8;align=center;" vertex="1" parent="1">
          <mxGeometry x="740" y="70" width="50" height="40" as="geometry" />
        </mxCell>
        <mxCell id="_o2dJ1vOlYaZSfBBGsUN-60" value="vld拉低" style="rounded=1;whiteSpace=wrap;html=1;shadow=0;labelBackgroundColor=none;strokeWidth=1;fontFamily=Verdana;fontSize=8;align=center;" vertex="1" parent="1">
          <mxGeometry x="800" y="70" width="50" height="40" as="geometry" />
        </mxCell>
        <mxCell id="_o2dJ1vOlYaZSfBBGsUN-61" value="vld拉高" style="rounded=1;whiteSpace=wrap;html=1;shadow=0;labelBackgroundColor=none;strokeWidth=1;fontFamily=Verdana;fontSize=8;align=center;" vertex="1" parent="1">
          <mxGeometry x="860" y="70" width="50" height="40" as="geometry" />
        </mxCell>
        <mxCell id="_o2dJ1vOlYaZSfBBGsUN-62" value="数据16bits" style="rounded=1;whiteSpace=wrap;html=1;shadow=0;labelBackgroundColor=none;strokeWidth=1;fontFamily=Verdana;fontSize=8;align=center;" vertex="1" parent="1">
          <mxGeometry x="860" y="120" width="50" height="40" as="geometry" />
        </mxCell>
        <mxCell id="_o2dJ1vOlYaZSfBBGsUN-63" value="数据16bits" style="rounded=1;whiteSpace=wrap;html=1;shadow=0;labelBackgroundColor=none;strokeWidth=1;fontFamily=Verdana;fontSize=8;align=center;" vertex="1" parent="1">
          <mxGeometry x="920" y="120" width="50" height="40" as="geometry" />
        </mxCell>
        <mxCell id="_o2dJ1vOlYaZSfBBGsUN-64" value="vld拉高" style="rounded=1;whiteSpace=wrap;html=1;shadow=0;labelBackgroundColor=none;strokeWidth=1;fontFamily=Verdana;fontSize=8;align=center;" vertex="1" parent="1">
          <mxGeometry x="920" y="70" width="50" height="40" as="geometry" />
        </mxCell>
        <mxCell id="_o2dJ1vOlYaZSfBBGsUN-65" value="延迟计数器&lt;br&gt;置零" style="rounded=1;whiteSpace=wrap;html=1;shadow=0;labelBackgroundColor=none;strokeWidth=1;fontFamily=Verdana;fontSize=8;align=center;" vertex="1" parent="1">
          <mxGeometry x="620" y="500" width="50" height="40" as="geometry" />
        </mxCell>
        <mxCell id="_o2dJ1vOlYaZSfBBGsUN-66" value="" style="endArrow=classic;html=1;rounded=0;exitX=0.5;exitY=1;exitDx=0;exitDy=0;entryX=0;entryY=0.5;entryDx=0;entryDy=0;" edge="1" parent="1" source="_o2dJ1vOlYaZSfBBGsUN-43" target="_o2dJ1vOlYaZSfBBGsUN-49">
          <mxGeometry relative="1" as="geometry">
            <mxPoint x="570" y="390" as="sourcePoint" />
            <mxPoint x="670" y="390" as="targetPoint" />
            <Array as="points">
              <mxPoint x="525" y="570" />
            </Array>
          </mxGeometry>
        </mxCell>
        <mxCell id="_o2dJ1vOlYaZSfBBGsUN-67" value="可发送&lt;br&gt;信号" style="edgeLabel;resizable=0;html=1;;align=center;verticalAlign=middle;" connectable="0" vertex="1" parent="_o2dJ1vOlYaZSfBBGsUN-66">
          <mxGeometry relative="1" as="geometry" />
        </mxCell>
        <mxCell id="_o2dJ1vOlYaZSfBBGsUN-68" value="" style="endArrow=classic;html=1;rounded=0;exitX=0;exitY=0.5;exitDx=0;exitDy=0;" edge="1" parent="1" source="_o2dJ1vOlYaZSfBBGsUN-53">
          <mxGeometry relative="1" as="geometry">
            <mxPoint x="640" y="520" as="sourcePoint" />
            <mxPoint x="530" y="590" as="targetPoint" />
            <Array as="points">
              <mxPoint x="530" y="620" />
            </Array>
          </mxGeometry>
        </mxCell>
        <mxCell id="_o2dJ1vOlYaZSfBBGsUN-69" value="重置" style="edgeLabel;resizable=0;html=1;;align=center;verticalAlign=middle;" connectable="0" vertex="1" parent="_o2dJ1vOlYaZSfBBGsUN-68">
          <mxGeometry relative="1" as="geometry" />
        </mxCell>
        <mxCell id="_o2dJ1vOlYaZSfBBGsUN-70" value="" style="endArrow=classic;html=1;rounded=0;exitX=0.5;exitY=0;exitDx=0;exitDy=0;" edge="1" parent="1" source="_o2dJ1vOlYaZSfBBGsUN-43">
          <mxGeometry relative="1" as="geometry">
            <mxPoint x="330" y="500" as="sourcePoint" />
            <mxPoint x="130" y="490" as="targetPoint" />
            <Array as="points">
              <mxPoint x="525" y="490" />
            </Array>
          </mxGeometry>
        </mxCell>
        <mxCell id="_o2dJ1vOlYaZSfBBGsUN-71" value="重置" style="edgeLabel;resizable=0;html=1;;align=center;verticalAlign=middle;" connectable="0" vertex="1" parent="_o2dJ1vOlYaZSfBBGsUN-70">
          <mxGeometry relative="1" as="geometry" />
        </mxCell>
        <mxCell id="_o2dJ1vOlYaZSfBBGsUN-72" value="把处理过的data&lt;br&gt;写入buf" style="rounded=1;whiteSpace=wrap;html=1;shadow=0;labelBackgroundColor=none;strokeWidth=1;fontFamily=Verdana;fontSize=8;align=center;" vertex="1" parent="1">
          <mxGeometry x="680" y="290" width="50" height="40" as="geometry" />
        </mxCell>
        <mxCell id="_o2dJ1vOlYaZSfBBGsUN-73" value="读控制&lt;br&gt;生成信号" style="rounded=1;whiteSpace=wrap;html=1;shadow=0;labelBackgroundColor=none;strokeWidth=1;fontFamily=Verdana;fontSize=8;align=center;" vertex="1" parent="1">
          <mxGeometry x="680" y="390" width="50" height="40" as="geometry" />
        </mxCell>
        <mxCell id="_o2dJ1vOlYaZSfBBGsUN-74" value="把data&lt;br&gt;写入buf" style="rounded=1;whiteSpace=wrap;html=1;shadow=0;labelBackgroundColor=none;strokeWidth=1;fontFamily=Verdana;fontSize=8;align=center;" vertex="1" parent="1">
          <mxGeometry x="740" y="290" width="50" height="40" as="geometry" />
        </mxCell>
        <mxCell id="_o2dJ1vOlYaZSfBBGsUN-75" value="把data&lt;br&gt;写入buf" style="rounded=1;whiteSpace=wrap;html=1;shadow=0;labelBackgroundColor=none;strokeWidth=1;fontFamily=Verdana;fontSize=8;align=center;" vertex="1" parent="1">
          <mxGeometry x="860" y="290" width="50" height="40" as="geometry" />
        </mxCell>
        <mxCell id="_o2dJ1vOlYaZSfBBGsUN-76" value="把data&lt;br&gt;写入buf" style="rounded=1;whiteSpace=wrap;html=1;shadow=0;labelBackgroundColor=none;strokeWidth=1;fontFamily=Verdana;fontSize=8;align=center;" vertex="1" parent="1">
          <mxGeometry x="920" y="290" width="50" height="40" as="geometry" />
        </mxCell>
        <mxCell id="_o2dJ1vOlYaZSfBBGsUN-77" value="写指针+=1" style="rounded=1;whiteSpace=wrap;html=1;shadow=0;labelBackgroundColor=none;strokeWidth=1;fontFamily=Verdana;fontSize=8;align=center;" vertex="1" parent="1">
          <mxGeometry x="680" y="340" width="50" height="40" as="geometry" />
        </mxCell>
        <mxCell id="_o2dJ1vOlYaZSfBBGsUN-78" value="写指针+=1" style="rounded=1;whiteSpace=wrap;html=1;shadow=0;labelBackgroundColor=none;strokeWidth=1;fontFamily=Verdana;fontSize=8;align=center;" vertex="1" parent="1">
          <mxGeometry x="740" y="340" width="50" height="40" as="geometry" />
        </mxCell>
        <mxCell id="_o2dJ1vOlYaZSfBBGsUN-79" value="写指针+=1" style="rounded=1;whiteSpace=wrap;html=1;shadow=0;labelBackgroundColor=none;strokeWidth=1;fontFamily=Verdana;fontSize=8;align=center;" vertex="1" parent="1">
          <mxGeometry x="860" y="340" width="50" height="40" as="geometry" />
        </mxCell>
        <mxCell id="_o2dJ1vOlYaZSfBBGsUN-80" value="写指针+=1" style="rounded=1;whiteSpace=wrap;html=1;shadow=0;labelBackgroundColor=none;strokeWidth=1;fontFamily=Verdana;fontSize=8;align=center;" vertex="1" parent="1">
          <mxGeometry x="920" y="340" width="50" height="40" as="geometry" />
        </mxCell>
        <mxCell id="_o2dJ1vOlYaZSfBBGsUN-81" value="延迟计数器&lt;br&gt;+=1" style="rounded=1;whiteSpace=wrap;html=1;shadow=0;labelBackgroundColor=none;strokeWidth=1;fontFamily=Verdana;fontSize=8;align=center;" vertex="1" parent="1">
          <mxGeometry x="740" y="500" width="50" height="40" as="geometry" />
        </mxCell>
        <mxCell id="_o2dJ1vOlYaZSfBBGsUN-82" value="延迟计数器&lt;br&gt;+=1" style="rounded=1;whiteSpace=wrap;html=1;shadow=0;labelBackgroundColor=none;strokeWidth=1;fontFamily=Verdana;fontSize=8;align=center;" vertex="1" parent="1">
          <mxGeometry x="800" y="500" width="50" height="40" as="geometry" />
        </mxCell>
        <mxCell id="_o2dJ1vOlYaZSfBBGsUN-83" value="延迟计数器&lt;br&gt;+=1" style="rounded=1;whiteSpace=wrap;html=1;shadow=0;labelBackgroundColor=none;strokeWidth=1;fontFamily=Verdana;fontSize=8;align=center;" vertex="1" parent="1">
          <mxGeometry x="860" y="500" width="50" height="40" as="geometry" />
        </mxCell>
        <mxCell id="_o2dJ1vOlYaZSfBBGsUN-84" value="延迟计数器&lt;br&gt;+=1" style="rounded=1;whiteSpace=wrap;html=1;shadow=0;labelBackgroundColor=none;strokeWidth=1;fontFamily=Verdana;fontSize=8;align=center;" vertex="1" parent="1">
          <mxGeometry x="920" y="500" width="50" height="40" as="geometry" />
        </mxCell>
        <mxCell id="_o2dJ1vOlYaZSfBBGsUN-85" value="" style="endArrow=classic;html=1;rounded=0;entryX=0;entryY=0.5;entryDx=0;entryDy=0;exitX=0.5;exitY=1;exitDx=0;exitDy=0;" edge="1" parent="1" target="_o2dJ1vOlYaZSfBBGsUN-81" source="_o2dJ1vOlYaZSfBBGsUN-73">
          <mxGeometry relative="1" as="geometry">
            <mxPoint x="700" y="430" as="sourcePoint" />
            <mxPoint x="704.58" y="395.42" as="targetPoint" />
            <Array as="points">
              <mxPoint x="705" y="520" />
            </Array>
          </mxGeometry>
        </mxCell>
        <mxCell id="_o2dJ1vOlYaZSfBBGsUN-86" value="触发信号" style="edgeLabel;resizable=0;html=1;;align=center;verticalAlign=middle;" connectable="0" vertex="1" parent="_o2dJ1vOlYaZSfBBGsUN-85">
          <mxGeometry relative="1" as="geometry" />
        </mxCell>
      </root>
    </mxGraphModel>
  </diagram>
</mxfile>
